<svg width="30" height="30" viewBox="0 0 30 30" fill="none" xmlns="http://www.w3.org/2000/svg">
<rect x="1" y="1" width="28" height="28" rx="14" fill="#CB4920"/>
<path d="M15.0344 17.2414C15.9676 17.2414 16.724 16.4849 16.724 15.5517C16.724 14.6185 15.9676 13.8621 15.0344 13.8621C14.1012 13.8621 13.3447 14.6185 13.3447 15.5517C13.3447 16.4849 14.1012 17.2414 15.0344 17.2414Z" fill="white"/>
<path d="M20.1034 11.4483H18.5205C18.4191 11.4483 18.3203 11.4164 18.2381 11.3572C18.1559 11.2979 18.0944 11.2142 18.0623 11.1181L17.9098 10.6599C17.8456 10.4677 17.7226 10.3005 17.5582 10.1821C17.3937 10.0636 17.1962 9.99992 16.9935 10H13.075C12.8723 10.0001 12.6748 10.0639 12.5105 10.1824C12.3461 10.3009 12.2232 10.4682 12.1592 10.6604L12.0066 11.1181C11.9746 11.2142 11.9131 11.2979 11.8309 11.3572C11.7486 11.4164 11.6498 11.4483 11.5485 11.4483H9.96552C9.70945 11.4483 9.46386 11.55 9.28279 11.7311C9.10172 11.9121 9 12.1577 9 12.4138V18.2069C9 18.463 9.10172 18.7086 9.28279 18.8896C9.46386 19.0707 9.70945 19.1724 9.96552 19.1724H20.1034C20.3595 19.1724 20.6051 19.0707 20.7862 18.8896C20.9672 18.7086 21.069 18.463 21.069 18.2069V12.4138C21.069 12.1577 20.9672 11.9121 20.7862 11.7311C20.6051 11.55 20.3595 11.4483 20.1034 11.4483ZM15.0345 18.2069C13.5708 18.2069 12.3793 17.0154 12.3793 15.5517C12.3793 14.088 13.5708 12.8966 15.0345 12.8966C16.4982 12.8966 17.6897 14.088 17.6897 15.5517C17.6897 17.0154 16.4982 18.2069 15.0345 18.2069ZM17.931 13.3793C17.803 13.3793 17.6802 13.3284 17.5897 13.2379C17.4991 13.1474 17.4483 13.0246 17.4483 12.8966C17.4483 12.7685 17.4991 12.6457 17.5897 12.5552C17.6802 12.4647 17.803 12.4138 17.931 12.4138C18.0591 12.4138 18.1819 12.4647 18.2724 12.5552C18.3629 12.6457 18.4138 12.7685 18.4138 12.8966C18.4138 13.0246 18.3629 13.1474 18.2724 13.2379C18.1819 13.3284 18.0591 13.3793 17.931 13.3793Z" fill="white"/>
<path d="M10.6893 10.9655H9.7238C9.65978 10.9655 9.59839 10.9401 9.55312 10.8948C9.50785 10.8496 9.48242 10.7882 9.48242 10.7242C9.48242 10.6601 9.50785 10.5988 9.55312 10.5535C9.59839 10.5082 9.65978 10.4828 9.7238 10.4828H10.6893C10.7533 10.4828 10.8147 10.5082 10.86 10.5535C10.9053 10.5988 10.9307 10.6601 10.9307 10.7242C10.9307 10.7882 10.9053 10.8496 10.86 10.8948C10.8147 10.9401 10.7533 10.9655 10.6893 10.9655Z" fill="white"/>
<rect x="1" y="1" width="28" height="28" rx="14" stroke="white" stroke-width="2"/>
</svg>
