<svg width="100" height="38" viewBox="0 0 100 38" fill="none" xmlns="http://www.w3.org/2000/svg">
<path d="M15.453 0.814427C12.9727 4.59039 12.1213 9.40288 12.0843 19.213C12.0843 26.1726 12.0472 26.6168 11.603 24.7659C10.9367 21.9524 11.2328 9.4399 12.0472 6.66346C12.3804 5.55288 12.6395 4.59039 12.6395 4.51635C12.6395 4.47933 11.8251 4.44231 10.7886 4.44231C9.45589 4.44231 8.78954 4.6274 8.30829 5.18269C6.53137 7.03365 5.38378 13.9933 5.67994 21.0269C5.82801 24.951 5.82801 25.2101 5.38378 23.8034C4.34724 20.3235 4.38426 15.474 5.45782 9.14375L5.71695 7.77404H4.16215C3.16263 7.77404 2.42224 7.99615 1.94099 8.4774C-0.539294 10.9577 -0.687371 25.062 1.7559 28.7639C2.20013 29.5043 2.60733 29.6154 4.60637 29.6154L6.90157 29.6524L7.64195 31.2072L8.38234 32.762L11.0107 32.8731C13.602 32.9841 13.602 32.9841 14.0463 34.2058C14.3054 34.9091 14.8607 35.9086 15.2679 36.4269C15.9713 37.3524 16.1934 37.3894 19.4511 37.3894C22.5977 37.3894 22.9309 37.3154 23.7083 36.5009C24.9669 35.1683 26.3367 30.3187 26.7809 25.6543L27.1881 21.4711H28.6319C30.0386 21.4711 30.0386 21.4712 30.0386 20.0274C30.0386 19.25 30.1496 18.1024 30.2607 17.4731L30.4828 16.3255L27.7804 16.2144C25.115 16.1034 24.0044 15.474 26.0775 15.2519C26.6328 15.1779 27.077 14.9187 27.077 14.6966C27.003 9.95817 25.4112 3.22068 23.8934 1.18462L22.9679 0H19.4881C16.2674 0 15.9343 0.0740429 15.453 0.814427ZM20.5617 2.77644C18.2295 8.40336 18.2295 29.0231 20.5987 34.687C21.154 35.9827 21.154 36.0567 20.5987 35.5014C19.5621 34.5019 18.5626 29.7264 18.1184 24.0625C17.5261 15.6591 18.4516 5.99711 20.2655 2.5173C21.0429 1.03653 21.228 1.22163 20.5617 2.77644ZM76.5347 0.59231C75.0169 2.07308 73.4621 7.32981 73.0919 12.2534L72.8698 15.1779H73.8693C74.5357 15.1779 74.8318 15.363 74.7578 15.6221C74.6467 15.9553 73.6472 16.1404 71.9073 16.2144C69.6492 16.2885 69.2419 16.3995 69.427 16.8808C69.487 17.0608 69.5471 17.4787 69.5896 18C69.6257 18.4434 69.6492 18.9617 69.6492 19.4721V20.4716V21.4711H72.8698L73.0919 24.8769C73.3511 28.9861 74.4617 33.5764 75.7573 35.7976L76.7198 37.3894H80.3847C83.9386 37.3894 84.0496 37.3524 84.753 36.3529C85.1232 35.7976 85.6415 34.7981 85.9006 34.1317C86.3818 32.9471 86.4189 32.9471 88.9362 32.9471H91.4905L92.3049 31.2812L93.1194 29.6524L95.5256 29.5413C97.8948 29.4303 97.9689 29.3933 98.5982 28.1346C100.301 24.5808 100.486 14.3635 98.9684 10.4024C98.0429 8.03317 97.7467 7.77404 95.6367 7.77404C94.2669 7.77404 94.0448 7.8851 94.2299 8.40337C95.3035 11.9942 95.5626 20.2865 94.6741 23.5072C94.1929 25.2841 94.1559 25.1731 94.341 20.9159C94.6001 14.6966 93.6376 8.1072 92.0828 5.84903C91.3794 4.77548 91.0833 4.62741 89.3064 4.51635C87.3814 4.40529 87.3443 4.44231 87.5665 5.25673C88.4549 8.25529 88.9732 14.2154 88.7511 19.0649C88.4179 27.3942 87.9737 27.4683 87.9366 19.176C87.9366 12.8086 87.7886 11.0687 87.0852 7.77404C86.641 5.62692 85.8266 3.0726 85.2713 2.03606L84.2718 0.185096L80.7179 0.074043C77.7934 4.51505e-06 77.016 0.0740407 76.5347 0.59231ZM80.7179 5.47884C82.2357 11.1428 82.3467 25.2101 80.94 31.3553C80.4588 33.3913 79.4593 35.9086 79.1631 35.9086C79.0891 35.9086 79.4592 34.3538 79.9405 32.4659C80.7179 29.5413 80.866 27.9495 81.0141 21.175C81.2362 12.8087 80.866 8.18125 79.6443 3.77597C79.1631 2.07308 79.1261 1.51778 79.4593 1.96201C79.7184 2.33221 80.3107 3.92403 80.7179 5.47884Z" fill="white"/>
<path d="M30.2607 17.4731C30.1496 18.1024 30.0386 19.25 30.0386 20.0274L69.6492 20.4716V19.4721C69.6492 18.9617 69.6257 18.4434 69.5896 18L30.2607 17.4731Z" fill="white"/>
</svg>
