<svg width="14" height="15" viewBox="0 0 14 15" fill="none" xmlns="http://www.w3.org/2000/svg">
<mask id="path-1-inside-1_151_2362" fill="white">
<path d="M3.355 0.522953C3.48177 0.488348 3.61857 0.500576 3.73537 0.556953C3.85217 0.61333 3.93943 0.709249 3.978 0.82366L4.269 1.68695C5.08091 1.20785 6.03011 0.953306 7 0.954599C8.007 0.954599 8.946 1.2237 9.731 1.68695L10.021 0.82366C10.0397 0.766533 10.0707 0.713308 10.1122 0.667051C10.1538 0.620795 10.2051 0.58242 10.2631 0.554139C10.3212 0.525858 10.3849 0.508228 10.4505 0.502267C10.5161 0.496306 10.5824 0.50213 10.6455 0.519404C10.7087 0.536678 10.7674 0.565061 10.8183 0.602918C10.8692 0.640774 10.9114 0.687356 10.9423 0.739979C10.9732 0.792603 10.9922 0.850228 10.9984 0.909534C11.0045 0.968841 10.9976 1.02866 10.978 1.08554L10.568 2.30643C11.4872 3.1499 12.0017 4.28631 12 5.46973H12.5C12.6326 5.46973 12.7598 5.42216 12.8536 5.33749C12.9473 5.25281 13 5.13797 13 5.01822V4.56671C13 4.44696 13.0527 4.33211 13.1464 4.24744C13.2402 4.16276 13.3674 4.11519 13.5 4.11519C13.6326 4.11519 13.7598 4.16276 13.8536 4.24744C13.9473 4.33211 14 4.44696 14 4.56671V5.01822C14 5.37747 13.842 5.722 13.5607 5.97602C13.2794 6.23005 12.8978 6.37276 12.5 6.37276H12V7.27579H13.5C13.6326 7.27579 13.7598 7.32336 13.8536 7.40803C13.9473 7.49271 14 7.60755 14 7.7273C14 7.84705 13.9473 7.96189 13.8536 8.04657C13.7598 8.13124 13.6326 8.17881 13.5 8.17881H12V9.08184H12.5C12.8978 9.08184 13.2794 9.22455 13.5607 9.47858C13.842 9.7326 14 10.0771 14 10.4364V10.8879C14 11.0076 13.9473 11.1225 13.8536 11.2072C13.7598 11.2918 13.6326 11.3394 13.5 11.3394C13.3674 11.3394 13.2402 11.2918 13.1464 11.2072C13.0527 11.1225 13 11.0076 13 10.8879V10.4364C13 10.3166 12.9473 10.2018 12.8536 10.1171C12.7598 10.0324 12.6326 9.98487 12.5 9.98487H12C12 11.1824 11.4732 12.3308 10.5355 13.1775C9.59785 14.0243 8.32608 14.5 7 14.5C5.67392 14.5 4.40215 14.0243 3.46447 13.1775C2.52678 12.3308 2 11.1824 2 9.98487H1.5C1.36739 9.98487 1.24021 10.0324 1.14645 10.1171C1.05268 10.2018 1 10.3166 1 10.4364V10.8879C1 11.0076 0.947322 11.1225 0.853553 11.2072C0.759785 11.2918 0.632608 11.3394 0.5 11.3394C0.367392 11.3394 0.240215 11.2918 0.146447 11.2072C0.0526784 11.1225 0 11.0076 0 10.8879V10.4364C0 10.0771 0.158035 9.7326 0.43934 9.47858C0.720644 9.22455 1.10218 9.08184 1.5 9.08184H2V8.17881H0.5C0.367392 8.17881 0.240215 8.13124 0.146447 8.04657C0.0526784 7.96189 0 7.84705 0 7.7273C0 7.60755 0.0526784 7.49271 0.146447 7.40803C0.240215 7.32336 0.367392 7.27579 0.5 7.27579H2V6.37276H1.5C1.10218 6.37276 0.720644 6.23005 0.43934 5.97602C0.158035 5.722 0 5.37747 0 5.01822V4.56671C0 4.44696 0.0526784 4.33211 0.146447 4.24744C0.240215 4.16276 0.367392 4.11519 0.5 4.11519C0.632608 4.11519 0.759785 4.16276 0.853553 4.24744C0.947322 4.33211 1 4.44696 1 4.56671V5.01822C1 5.13797 1.05268 5.25281 1.14645 5.33749C1.24021 5.42216 1.36739 5.46973 1.5 5.46973H2C2 4.238 2.547 3.12096 3.432 2.30643L3.022 1.08554C2.98368 0.971059 2.99722 0.847527 3.05965 0.742053C3.12208 0.63658 3.2283 0.557782 3.355 0.522953ZM3 6.37276V9.98487C2.99967 10.8649 3.35509 11.7147 3.99955 12.3748C4.644 13.0349 5.53314 13.4599 6.5 13.5699V6.37276H3ZM7.5 6.37276V13.5699C8.46686 13.4599 9.356 13.0349 10.0005 12.3748C10.6449 11.7147 11.0003 10.8649 11 9.98487V6.37276H7.5ZM11 5.46973C11.0007 4.96129 10.8822 4.45847 10.6523 3.99435C10.4223 3.53023 10.0862 3.11532 9.666 2.77691C8.93357 2.18365 7.9839 1.85618 7 1.85763C6.01576 1.85596 5.06568 2.18344 4.333 2.77691C3.91297 3.1154 3.57703 3.53035 3.34728 3.99446C3.11754 4.45858 2.99918 4.96136 3 5.46973H11Z"/>
</mask>
<path d="M3.355 0.522953C3.48177 0.488348 3.61857 0.500576 3.73537 0.556953C3.85217 0.61333 3.93943 0.709249 3.978 0.82366L4.269 1.68695C5.08091 1.20785 6.03011 0.953306 7 0.954599C8.007 0.954599 8.946 1.2237 9.731 1.68695L10.021 0.82366C10.0397 0.766533 10.0707 0.713308 10.1122 0.667051C10.1538 0.620795 10.2051 0.58242 10.2631 0.554139C10.3212 0.525858 10.3849 0.508228 10.4505 0.502267C10.5161 0.496306 10.5824 0.50213 10.6455 0.519404C10.7087 0.536678 10.7674 0.565061 10.8183 0.602918C10.8692 0.640774 10.9114 0.687356 10.9423 0.739979C10.9732 0.792603 10.9922 0.850228 10.9984 0.909534C11.0045 0.968841 10.9976 1.02866 10.978 1.08554L10.568 2.30643C11.4872 3.1499 12.0017 4.28631 12 5.46973H12.5C12.6326 5.46973 12.7598 5.42216 12.8536 5.33749C12.9473 5.25281 13 5.13797 13 5.01822V4.56671C13 4.44696 13.0527 4.33211 13.1464 4.24744C13.2402 4.16276 13.3674 4.11519 13.5 4.11519C13.6326 4.11519 13.7598 4.16276 13.8536 4.24744C13.9473 4.33211 14 4.44696 14 4.56671V5.01822C14 5.37747 13.842 5.722 13.5607 5.97602C13.2794 6.23005 12.8978 6.37276 12.5 6.37276H12V7.27579H13.5C13.6326 7.27579 13.7598 7.32336 13.8536 7.40803C13.9473 7.49271 14 7.60755 14 7.7273C14 7.84705 13.9473 7.96189 13.8536 8.04657C13.7598 8.13124 13.6326 8.17881 13.5 8.17881H12V9.08184H12.5C12.8978 9.08184 13.2794 9.22455 13.5607 9.47858C13.842 9.7326 14 10.0771 14 10.4364V10.8879C14 11.0076 13.9473 11.1225 13.8536 11.2072C13.7598 11.2918 13.6326 11.3394 13.5 11.3394C13.3674 11.3394 13.2402 11.2918 13.1464 11.2072C13.0527 11.1225 13 11.0076 13 10.8879V10.4364C13 10.3166 12.9473 10.2018 12.8536 10.1171C12.7598 10.0324 12.6326 9.98487 12.5 9.98487H12C12 11.1824 11.4732 12.3308 10.5355 13.1775C9.59785 14.0243 8.32608 14.5 7 14.5C5.67392 14.5 4.40215 14.0243 3.46447 13.1775C2.52678 12.3308 2 11.1824 2 9.98487H1.5C1.36739 9.98487 1.24021 10.0324 1.14645 10.1171C1.05268 10.2018 1 10.3166 1 10.4364V10.8879C1 11.0076 0.947322 11.1225 0.853553 11.2072C0.759785 11.2918 0.632608 11.3394 0.5 11.3394C0.367392 11.3394 0.240215 11.2918 0.146447 11.2072C0.0526784 11.1225 0 11.0076 0 10.8879V10.4364C0 10.0771 0.158035 9.7326 0.43934 9.47858C0.720644 9.22455 1.10218 9.08184 1.5 9.08184H2V8.17881H0.5C0.367392 8.17881 0.240215 8.13124 0.146447 8.04657C0.0526784 7.96189 0 7.84705 0 7.7273C0 7.60755 0.0526784 7.49271 0.146447 7.40803C0.240215 7.32336 0.367392 7.27579 0.5 7.27579H2V6.37276H1.5C1.10218 6.37276 0.720644 6.23005 0.43934 5.97602C0.158035 5.722 0 5.37747 0 5.01822V4.56671C0 4.44696 0.0526784 4.33211 0.146447 4.24744C0.240215 4.16276 0.367392 4.11519 0.5 4.11519C0.632608 4.11519 0.759785 4.16276 0.853553 4.24744C0.947322 4.33211 1 4.44696 1 4.56671V5.01822C1 5.13797 1.05268 5.25281 1.14645 5.33749C1.24021 5.42216 1.36739 5.46973 1.5 5.46973H2C2 4.238 2.547 3.12096 3.432 2.30643L3.022 1.08554C2.98368 0.971059 2.99722 0.847527 3.05965 0.742053C3.12208 0.63658 3.2283 0.557782 3.355 0.522953ZM3 6.37276V9.98487C2.99967 10.8649 3.35509 11.7147 3.99955 12.3748C4.644 13.0349 5.53314 13.4599 6.5 13.5699V6.37276H3ZM7.5 6.37276V13.5699C8.46686 13.4599 9.356 13.0349 10.0005 12.3748C10.6449 11.7147 11.0003 10.8649 11 9.98487V6.37276H7.5ZM11 5.46973C11.0007 4.96129 10.8822 4.45847 10.6523 3.99435C10.4223 3.53023 10.0862 3.11532 9.666 2.77691C8.93357 2.18365 7.9839 1.85618 7 1.85763C6.01576 1.85596 5.06568 2.18344 4.333 2.77691C3.91297 3.1154 3.57703 3.53035 3.34728 3.99446C3.11754 4.45858 2.99918 4.96136 3 5.46973H11Z" fill="white" stroke="white" stroke-width="2" mask="url(#path-1-inside-1_151_2362)"/>
</svg>
