<svg width="12" height="12" viewBox="0 0 12 12" fill="none" xmlns="http://www.w3.org/2000/svg">
<path fill-rule="evenodd" clip-rule="evenodd" d="M1.24582 6.00023C1.24582 4.8284 1.24597 3.93183 1.28162 3.23656C1.31775 2.53216 1.38877 2.0925 1.50202 1.80938C1.60084 1.56231 1.72367 1.45045 1.91407 1.37641C2.14782 1.28551 2.50223 1.24606 3.08332 1.24606C3.65137 1.24606 4.04771 1.28207 4.32471 1.34363C4.60084 1.40499 4.71927 1.48323 4.77438 1.53833C4.82352 1.58748 4.86517 1.66049 4.89111 1.81612C4.91941 1.98595 4.92082 2.19598 4.92082 2.50023C4.92082 2.77407 5.14281 2.99606 5.41665 2.99606C5.69049 2.99606 5.91248 2.77407 5.91248 2.50023L5.91249 2.4754V2.47538C5.91253 2.20338 5.91257 1.91283 5.86928 1.65309C5.8223 1.37122 5.71811 1.07965 5.47559 0.837121C5.23903 0.600562 4.91996 0.460049 4.53984 0.375577C4.16059 0.291301 3.68193 0.254395 3.08332 0.254395C2.49774 0.254395 1.97714 0.287866 1.55465 0.452171C1.08879 0.633336 0.774123 0.958975 0.581281 1.44108C0.402865 1.88712 0.328053 2.4683 0.291259 3.18577C0.25415 3.9094 0.25415 4.83113 0.25415 5.98595V5.98606V6.00023V6.01439V6.0145C0.25415 7.16932 0.25415 8.09106 0.291259 8.81468C0.328053 9.53216 0.402865 10.1133 0.581281 10.5594C0.774123 11.0415 1.08879 11.3671 1.55465 11.5483C1.97714 11.7126 2.49774 11.7461 3.08332 11.7461C3.68193 11.7461 4.16059 11.7092 4.53984 11.6249C4.91996 11.5404 5.23903 11.3999 5.47559 11.1633C5.71811 10.9208 5.8223 10.6292 5.86928 10.3474C5.91257 10.0876 5.91253 9.79708 5.91249 9.52507V9.52506L5.91248 9.50023C5.91248 9.22639 5.69049 9.00439 5.41665 9.00439C5.14281 9.00439 4.92082 9.22639 4.92082 9.50023C4.92082 9.80447 4.91941 10.0145 4.89111 10.1843C4.86517 10.34 4.82352 10.413 4.77438 10.4621C4.71927 10.5172 4.60084 10.5955 4.32471 10.6568C4.04771 10.7184 3.65137 10.7544 3.08332 10.7544C2.50223 10.7544 2.14782 10.7149 1.91407 10.624C1.72367 10.55 1.60084 10.4381 1.50202 10.1911C1.38877 9.90795 1.31775 9.4683 1.28162 8.7639C1.24597 8.06862 1.24582 7.17206 1.24582 6.00023ZM9.26726 3.31629C9.07362 3.12265 8.75968 3.12265 8.56604 3.31629C8.37241 3.50992 8.37241 3.82387 8.56604 4.0175L10.0529 5.50439H5.41665C5.14281 5.50439 4.92082 5.72639 4.92082 6.00023C4.92082 6.27407 5.14281 6.49606 5.41665 6.49606H10.0529L8.56604 7.98295C8.37241 8.17659 8.37241 8.49053 8.56604 8.68417C8.75968 8.8778 9.07362 8.8778 9.26726 8.68417L11.6006 6.35083C11.7942 6.1572 11.7942 5.84326 11.6006 5.64962L9.26726 3.31629Z" fill="white"/>
</svg>
