<svg width="14" height="8" viewBox="0 0 14 8" fill="none" xmlns="http://www.w3.org/2000/svg">
<path d="M10.5203 3.63941C12.4239 3.63941 13.9672 2.91126 13.9672 2.01233C13.9665 1.11309 12.4239 0.385254 10.5203 0.385254C8.61863 0.385254 7.07538 1.11309 7.07538 2.01233C7.07538 2.91126 8.61863 3.63941 10.5203 3.63941ZM10.5203 1.25165C11.4111 1.25165 12.1311 1.59196 12.1311 2.01233C12.1311 2.43271 11.4096 2.77301 10.5203 2.77301C9.63172 2.77301 8.91108 2.43271 8.91108 2.01233C8.91108 1.59196 9.63172 1.25165 10.5203 1.25165ZM0 2.01233H6.60214V5.88329H6.1361V5.01939H5.96282V5.88329H5.30161V4.63874H5.12864V5.88329H4.52091V5.01939H4.34732V5.88329H3.52377V4.63874H3.35018V5.88329H2.53695V5.01939H2.36367V5.88329H1.64803V4.63874H1.47444V5.88329H0.650268V5.213H0.476363V5.88329H0V2.01233ZM14 3.01166V6.4954L13.3307 6.97614V5.38472L13.0964 5.55205V7.10688C12.8924 7.20447 12.5012 7.32489 12.5012 7.32489V6.20827L12.2669 6.32556V7.40934C12.0648 7.46282 11.8399 7.50599 11.5991 7.54102V5.95053L11.3648 6.00934V7.57386C11.1324 7.59826 10.8869 7.61483 10.6204 7.61483C10.5998 7.61483 10.5782 7.61296 10.5579 7.61296V6.51541L10.323 6.51886V7.60576C10.0408 7.59575 9.77748 7.56948 9.5332 7.53038V5.97743L9.29736 5.91863V7.49035C9.07154 7.44499 8.86166 7.39245 8.66899 7.33552V6.24079L8.43472 6.12288V7.24044C8.43472 7.24044 8.03936 7.10719 7.81573 6.99522V5.44008L7.58177 5.27368V6.8651L7.04254 6.49571V3.01197C7.04254 3.01197 8.39781 4.13204 10.4765 4.13204C12.5553 4.13204 14 3.01166 14 3.01166ZM8.66899 7.33552V7.33865C8.66899 7.33802 8.65585 7.33052 8.66899 7.33552ZM13.0964 7.11658V7.10688C13.1255 7.09218 13.0964 7.11658 13.0964 7.11658Z" />
</svg>
