<svg width="160" height="20" viewBox="0 0 160 20" fill="none" xmlns="http://www.w3.org/2000/svg">
<path d="M9.92462 0C11.303 0 12.5344 0.156597 13.6188 0.46979C14.7215 0.764559 15.6497 1.20671 16.4032 1.79625C17.1567 2.36737 17.7357 3.07666 18.14 3.92412C18.5443 4.75316 18.7465 5.70195 18.7465 6.77049C18.7465 7.83903 18.5443 8.79703 18.14 9.64449C17.7357 10.4735 17.1567 11.1828 16.4032 11.7724C15.6497 12.3435 14.7215 12.7856 13.6188 13.0988C12.5344 13.3936 11.303 13.541 9.92462 13.541H3.99742V19.3443H0V0H9.92462ZM3.99742 2.0726V11.4684H9.92462C11.3766 11.4684 12.4977 11.0907 13.288 10.3354C14.0966 9.56159 14.501 8.3733 14.501 6.77049C14.501 5.16768 14.0966 3.9886 13.288 3.23326C12.4977 2.45949 11.3766 2.0726 9.92462 2.0726H3.99742Z" fill="white"/>
<path d="M21.9513 19.3443H18.0918V0H21.9513V19.3443Z" fill="white"/>
<path d="M29.0157 14.7845C29.0157 16.5347 30.0725 17.4098 32.1861 17.4098H36.0457V12.1592H32.1861C30.0725 12.1592 29.0157 13.0343 29.0157 14.7845ZM36.0457 10.2248C36.0457 8.89836 35.6965 7.92193 34.9981 7.29555C34.318 6.66916 33.4267 6.35597 32.3239 6.35597C31.4969 6.35597 30.6882 6.48493 29.8979 6.74286C29.1076 6.98236 28.4 7.31397 27.7751 7.7377L26.8103 6.07962C27.2146 5.80328 27.6557 5.56378 28.1335 5.36112C28.6298 5.15847 29.1352 4.99266 29.6498 4.8637C30.1644 4.71631 30.6698 4.60578 31.1661 4.53208C31.6807 4.45839 32.1585 4.42155 32.5996 4.42155C33.7759 4.42155 34.8143 4.55972 35.7148 4.83606C36.6154 5.11241 37.3781 5.50851 38.003 6.02435C38.6279 6.5402 39.0966 7.15737 39.409 7.87588C39.7398 8.57595 39.9052 9.35894 39.9052 10.2248V19.3443H32.1861C29.6866 19.3443 27.8395 18.9666 26.6448 18.2112C25.4686 17.4559 24.8805 16.3137 24.8805 14.7845C24.8805 13.2554 25.4686 12.1132 26.6448 11.3578C27.8395 10.6025 29.6866 10.2248 32.1861 10.2248H36.0457Z" fill="white"/>
<path d="M57.3767 19.3443H53.5171V10.6393C53.5171 9.31288 53.1863 8.36409 52.5247 7.79297C51.863 7.20343 50.9073 6.90866 49.6576 6.90866H46.0737V19.3443H42.2141V4.97424H49.6576C52.2857 4.97424 54.2247 5.45324 55.4745 6.41124C56.7426 7.35082 57.3767 8.76019 57.3767 10.6393V19.3443Z" fill="white"/>
<path d="M66.2675 12.5738H74.8137L70.6784 2.34895H70.4028L66.2675 12.5738ZM73.711 0L81.5679 19.3443H77.5981L75.7786 14.6464H65.3026L63.4831 19.3443H59.5132L67.3702 0H73.711Z" fill="white"/>
<path d="M99.5908 19.3443H95.7312V10.6393C95.7312 9.31288 95.4004 8.36409 94.7387 7.79297C94.0771 7.20343 93.1214 6.90866 91.8716 6.90866H88.2878V19.3443H84.4282V4.97424H91.8716C94.4998 4.97424 96.4388 5.45324 97.6886 6.41124C98.9567 7.35082 99.5908 8.76019 99.5908 10.6393V19.3443Z" fill="white"/>
<path d="M112.824 17.4098V6.90866H109.378C108.753 6.90866 108.174 7.00999 107.641 7.21264C107.126 7.39688 106.676 7.70086 106.29 8.12459C105.922 8.54832 105.628 9.0918 105.408 9.75503C105.206 10.4183 105.104 11.2197 105.104 12.1592C105.104 13.0988 105.206 13.9002 105.408 14.5635C105.628 15.2267 105.922 15.7702 106.29 16.1939C106.676 16.6176 107.126 16.9308 107.641 17.1335C108.174 17.3177 108.753 17.4098 109.378 17.4098H112.824ZM109.378 19.3443C108.109 19.3443 106.952 19.1784 105.904 18.8468C104.875 18.5152 103.993 18.0362 103.257 17.4098C102.522 16.7834 101.952 16.0281 101.548 15.1438C101.162 14.2595 100.969 13.2646 100.969 12.1592C100.969 11.0539 101.162 10.059 101.548 9.1747C101.952 8.2904 102.522 7.53505 103.257 6.90866C103.993 6.28228 104.875 5.80328 105.904 5.47166C106.952 5.14005 108.109 4.97424 109.378 4.97424H112.824V0H116.683V19.3443H109.378Z" fill="white"/>
<path d="M129.709 0C131.363 0 132.861 0.211866 134.203 0.635597C135.563 1.04091 136.721 1.64887 137.676 2.45949C138.651 3.2701 139.404 4.28337 139.937 5.4993C140.47 6.6968 140.737 8.08774 140.737 9.67213C140.737 11.2565 140.47 12.6567 139.937 13.8726C139.404 15.0701 138.651 16.0742 137.676 16.8848C136.721 17.6954 135.563 18.3126 134.203 18.7363C132.861 19.1416 131.363 19.3443 129.709 19.3443H120.612V0H129.709ZM124.609 2.0726V17.2717H129.709C130.647 17.2717 131.52 17.1335 132.328 16.8571C133.155 16.5624 133.872 16.111 134.479 15.503C135.085 14.8767 135.563 14.0845 135.912 13.1265C136.28 12.1685 136.463 11.017 136.463 9.67213C136.463 8.32724 136.28 7.1758 135.912 6.2178C135.563 5.2598 135.085 4.47681 134.479 3.86885C133.872 3.24247 133.155 2.7911 132.328 2.51475C131.52 2.21998 130.647 2.0726 129.709 2.0726H124.609Z" fill="white"/>
<path d="M151.592 18.1007C152.18 18.1007 152.731 17.9902 153.246 17.7691C153.76 17.548 154.211 17.2072 154.597 16.7466C154.983 16.2676 155.286 15.6504 155.506 14.8951C155.745 14.1397 155.865 13.2278 155.865 12.1592C155.865 11.0907 155.745 10.1788 155.506 9.42342C155.286 8.66807 154.983 8.06011 154.597 7.59953C154.211 7.12053 153.76 6.77049 153.246 6.54941C152.731 6.32834 152.18 6.2178 151.592 6.2178C151.004 6.2178 150.452 6.32834 149.938 6.54941C149.423 6.77049 148.973 7.12053 148.587 7.59953C148.201 8.06011 147.888 8.66807 147.649 9.42342C147.429 10.1788 147.319 11.0907 147.319 12.1592C147.319 13.2278 147.429 14.1397 147.649 14.8951C147.888 15.6504 148.201 16.2676 148.587 16.7466C148.973 17.2072 149.423 17.548 149.938 17.7691C150.452 17.9902 151.004 18.1007 151.592 18.1007ZM151.592 4.42155C152.823 4.42155 153.953 4.59656 154.983 4.9466C156.03 5.27822 156.922 5.77564 157.657 6.43887C158.392 7.08368 158.962 7.8943 159.366 8.87072C159.789 9.82872 160 10.9249 160 12.1592C160 13.412 159.789 14.5174 159.366 15.4754C158.962 16.4334 158.392 17.244 157.657 17.9073C156.922 18.5521 156.03 19.0403 154.983 19.3719C153.953 19.7219 152.823 19.8969 151.592 19.8969C150.342 19.8969 149.202 19.7219 148.173 19.3719C147.144 19.0403 146.262 18.5521 145.527 17.9073C144.791 17.244 144.213 16.4334 143.79 15.4754C143.385 14.5174 143.183 13.412 143.183 12.1592C143.183 10.9249 143.385 9.82872 143.79 8.87072C144.213 7.8943 144.791 7.08368 145.527 6.43887C146.262 5.77564 147.144 5.27822 148.173 4.9466C149.202 4.59656 150.342 4.42155 151.592 4.42155Z" fill="white"/>
</svg>
