<svg width="12" height="14" viewBox="0 0 12 14" fill="none" xmlns="http://www.w3.org/2000/svg">
<path d="M6.27045 2.87549H5.84685C5.8391 2.99402 5.81097 3.08844 5.76304 3.15875C5.71483 3.22878 5.64825 3.28675 5.5653 3.3321C5.497 3.36884 5.39798 3.3961 5.26711 3.41562C5.13596 3.43456 5.01169 3.4446 4.89746 3.4446V3.81626H5.74496V6.54589H4.89746V6.96146H7.10217V6.54589H6.27074V2.87549H6.27045Z" />
<path d="M9.09093 8.77579C9.24017 8.69601 9.38109 8.59298 9.50679 8.46699C10.0171 7.95699 10.1508 7.21367 9.91146 6.57998C10.5288 6.30131 10.9593 5.68139 10.9593 4.9596C10.9593 4.23808 10.5288 3.61846 9.91146 3.33921C10.1508 2.70552 10.0171 1.96306 9.50679 1.45249C8.9968 0.942211 8.25347 0.80847 7.62007 1.04811C7.3414 0.430496 6.72148 0 5.99969 0C5.27818 0 4.65826 0.430496 4.3793 1.04811C3.74561 0.808757 3.00286 0.942498 2.49258 1.45278C1.98202 1.96335 1.84828 2.70609 2.08792 3.3395C1.47059 3.61846 1.03981 4.23837 1.03981 4.95988C1.03981 5.68168 1.4703 6.30159 2.08792 6.58027C1.84856 7.21396 1.9823 7.95757 2.49258 8.46727C2.61858 8.59298 2.7592 8.6963 2.90873 8.77637L0.817383 12.6703L2.64928 12.2792L3.29503 14L5.5227 9.85146C5.67481 9.89365 5.83409 9.91919 5.99997 9.91919C6.16586 9.91919 6.32485 9.89365 6.47696 9.85146L8.70492 14L9.35067 12.2792L11.1826 12.6703L9.09093 8.77579ZM6.00256 8.61594C3.97177 8.61594 2.32526 6.96944 2.32526 4.93864C2.32526 2.90785 3.97148 1.26164 6.00256 1.26164C8.03306 1.26164 9.67985 2.90785 9.67985 4.93864C9.67985 6.96972 8.03335 8.61594 6.00256 8.61594Z" />
</svg>
