<svg width="14" height="15" viewBox="0 0 14 15" fill="none" xmlns="http://www.w3.org/2000/svg">
<mask id="path-1-inside-1_422_1889">
<path d="M12.9787 9.2733C12.9308 9.1424 12.8581 9.02516 12.7682 8.91995C12.6106 8.28376 12.2985 7.55411 11.8448 6.83047C11.1185 5.66986 9.1954 3.79982 8.46466 3.51152C8.42831 3.49676 8.39552 3.48856 8.36491 3.48118C8.34005 3.30109 8.23811 3.13385 7.99654 3.01907C7.61969 2.84226 7.24803 2.66955 6.89905 2.54903C6.47985 1.35782 5.34602 0.5 4.01324 0.5C2.32466 0.5 0.951172 1.87267 0.951172 3.56125C0.951172 5.24956 2.32466 6.62305 4.01324 6.62305C5.40286 6.62305 6.57768 5.69118 6.95016 4.41962C7.22808 4.37699 7.46774 4.39147 7.60274 4.5926C7.97823 5.15118 8.39224 7.01029 9.07981 8.1985C8.906 8.17472 8.72673 8.1616 8.542 8.1616C7.7484 8.1616 7.03515 8.39389 6.5315 8.76609C6.10026 8.09328 5.34766 7.6462 4.48902 7.6462C3.35191 7.6462 2.40118 8.42914 2.13802 9.48509L2.03362 9.48591L2.09374 14.5L3.3336 14.4787L3.78342 13.6818C4.56499 13.3817 5.48922 12.6073 6.13114 11.7831C7.00126 11.9107 8.09983 11.9834 8.542 11.9834C9.02078 11.9834 10.8318 11.7724 11.3491 11.5825C12.5548 11.1422 13.2853 10.1079 12.9787 9.2733ZM4.01324 4.4587C3.51834 4.4587 3.11608 4.05616 3.11608 3.56125C3.11608 3.06662 3.51834 2.66463 4.01324 2.66463C4.50788 2.66463 4.91014 3.06689 4.91014 3.56125C4.91014 4.05643 4.5076 4.4587 4.01324 4.4587Z"/>
</mask>
<path d="M12.9787 9.2733C12.9308 9.1424 12.8581 9.02516 12.7682 8.91995C12.6106 8.28376 12.2985 7.55411 11.8448 6.83047C11.1185 5.66986 9.1954 3.79982 8.46466 3.51152C8.42831 3.49676 8.39552 3.48856 8.36491 3.48118C8.34005 3.30109 8.23811 3.13385 7.99654 3.01907C7.61969 2.84226 7.24803 2.66955 6.89905 2.54903C6.47985 1.35782 5.34602 0.5 4.01324 0.5C2.32466 0.5 0.951172 1.87267 0.951172 3.56125C0.951172 5.24956 2.32466 6.62305 4.01324 6.62305C5.40286 6.62305 6.57768 5.69118 6.95016 4.41962C7.22808 4.37699 7.46774 4.39147 7.60274 4.5926C7.97823 5.15118 8.39224 7.01029 9.07981 8.1985C8.906 8.17472 8.72673 8.1616 8.542 8.1616C7.7484 8.1616 7.03515 8.39389 6.5315 8.76609C6.10026 8.09328 5.34766 7.6462 4.48902 7.6462C3.35191 7.6462 2.40118 8.42914 2.13802 9.48509L2.03362 9.48591L2.09374 14.5L3.3336 14.4787L3.78342 13.6818C4.56499 13.3817 5.48922 12.6073 6.13114 11.7831C7.00126 11.9107 8.09983 11.9834 8.542 11.9834C9.02078 11.9834 10.8318 11.7724 11.3491 11.5825C12.5548 11.1422 13.2853 10.1079 12.9787 9.2733ZM4.01324 4.4587C3.51834 4.4587 3.11608 4.05616 3.11608 3.56125C3.11608 3.06662 3.51834 2.66463 4.01324 2.66463C4.50788 2.66463 4.91014 3.06689 4.91014 3.56125C4.91014 4.05643 4.5076 4.4587 4.01324 4.4587Z" />
<path d="M12.9787 9.2733L-1.68895 14.632L-1.68413 14.6452L-1.67928 14.6584L12.9787 9.2733ZM12.7682 8.91995L-2.389 12.6767L-1.50111 16.259L0.896572 19.0648L12.7682 8.91995ZM11.8448 6.83047L-1.39231 15.115L-1.38615 15.1248L11.8448 6.83047ZM8.46466 3.51152L2.59013 17.9803L2.66168 18.0093L2.73352 18.0377L8.46466 3.51152ZM8.36491 3.48118L-7.10415 5.61728L-5.64744 16.1664L4.70522 18.6621L8.36491 3.48118ZM7.99654 3.01907L14.6979 -11.0858L14.6637 -11.102L14.6294 -11.1181L7.99654 3.01907ZM6.89905 2.54903L-7.83128 7.73287L-5.32753 14.8475L1.80166 17.3095L6.89905 2.54903ZM6.95016 4.41962L4.5825 -11.0157L-5.24187 -9.50872L-8.03596 0.0297437L6.95016 4.41962ZM7.60274 4.5926L-5.36327 13.2953L-5.35717 13.3044L7.60274 4.5926ZM9.07981 8.1985L6.96339 23.6703L38.5769 27.9948L22.5959 0.37733L9.07981 8.1985ZM6.5315 8.76609L-6.61566 17.1927L2.39032 31.2438L15.8125 21.3247L6.5315 8.76609ZM2.13802 9.48509L2.26058 25.1005L14.3635 25.0055L17.2904 13.2614L2.13802 9.48509ZM2.03362 9.48591L1.91106 -6.12946L-13.7691 -6.00639L-13.5811 9.67313L2.03362 9.48591ZM2.09374 14.5L-13.521 14.6872L-13.3328 30.3834L2.36217 30.1135L2.09374 14.5ZM3.3336 14.4787L3.60203 30.0922L12.5388 29.9386L16.9325 22.1549L3.3336 14.4787ZM3.78342 13.6818L-1.81346 -0.896591L-7.05539 1.11587L-9.8155 6.0056L3.78342 13.6818ZM6.13115 11.7831L8.39729 -3.66747L-0.600743 -4.98722L-6.18888 2.18767L6.13115 11.7831ZM11.3491 11.5825L5.99301 -3.08608L5.98007 -3.08136L5.96713 -3.07661L11.3491 11.5825ZM27.6463 3.91457C26.8689 1.78692 25.7559 0.0810627 24.6399 -1.22492L0.896572 19.0648C-0.0396371 17.9693 -1.00728 16.4979 -1.68895 14.632L27.6463 3.91457ZM27.9255 5.1632C27.3134 2.69354 26.2733 0.446321 25.0758 -1.46387L-1.38615 15.1248C-1.55328 14.8582 -1.7232 14.5456 -1.88511 14.1761C-2.04284 13.8162 -2.23019 13.3175 -2.389 12.6767L27.9255 5.1632ZM25.082 -1.45404C23.7669 -3.5553 22.1065 -5.31102 21.0776 -6.31775C20.4653 -6.91683 19.7282 -7.59025 18.9155 -8.23621C18.4901 -8.57432 16.6929 -10.0294 14.1958 -11.0146L2.73352 18.0377C1.42791 17.5225 0.537726 16.9511 0.24732 16.7614C-0.142775 16.5064 -0.405704 16.3022 -0.517571 16.2133C-0.741479 16.0353 -0.815454 15.956 -0.764825 16.0055C-0.729469 16.0401 -0.7153 16.0583 -0.746458 16.0219C-0.765776 15.9994 -0.826496 15.9277 -0.91833 15.8067C-1.00213 15.6963 -1.17598 15.4606 -1.39231 15.115L25.082 -1.45404ZM14.3392 -10.9572C13.1409 -11.4438 12.13 -11.6744 12.0246 -11.6998L4.70522 18.6621C4.66105 18.6515 3.71575 18.4373 2.59013 17.9803L14.3392 -10.9572ZM23.834 1.34509C23.0589 -4.26814 19.4863 -8.81073 14.6979 -11.0858L1.29515 17.1239C-0.505687 16.2683 -2.55659 14.8354 -4.24695 12.5734C-5.95446 10.2885 -6.80039 7.81702 -7.10415 5.61728L23.834 1.34509ZM14.6294 -11.1181C14.3857 -11.2324 13.2629 -11.7741 11.9964 -12.2114L1.80166 17.3095C1.61303 17.2444 1.46543 17.1875 1.36803 17.1485C1.27024 17.1095 1.20372 17.0807 1.17821 17.0695C1.15287 17.0584 1.15113 17.0573 1.18602 17.0734C1.22334 17.0905 1.27274 17.1136 1.36365 17.1562L14.6294 -11.1181ZM21.6294 -2.6348C19.095 -9.83656 12.2228 -15.1159 4.01324 -15.1159V16.1159C-1.53075 16.1159 -6.13528 12.5522 -7.83128 7.73287L21.6294 -2.6348ZM4.01324 -15.1159C-6.29429 -15.1159 -14.6647 -6.75717 -14.6647 3.56125H16.567C16.567 10.5025 10.9436 16.1159 4.01324 16.1159V-15.1159ZM-14.6647 3.56125C-14.6647 13.8749 -6.29883 22.2389 4.01324 22.2389V-8.9928C10.9482 -8.9928 16.567 -3.37574 16.567 3.56125H-14.6647ZM4.01324 22.2389C12.5577 22.2389 19.6775 16.5204 21.9363 8.80949L-8.03596 0.0297437C-6.52217 -5.13802 -1.75199 -8.9928 4.01324 -8.9928V22.2389ZM9.31782 19.8549C8.81696 19.9318 6.74907 20.2494 4.11916 19.6969C0.91179 19.023 -2.80822 17.102 -5.36326 13.2953L20.5688 -4.11013C14.6997 -12.8543 5.02573 -11.0837 4.5825 -11.0157L9.31782 19.8549ZM-5.35717 13.3044C-5.69534 12.8013 -5.94007 12.3695 -6.09931 12.0715C-6.26281 11.7655 -6.38376 11.511 -6.4634 11.3363C-6.61476 11.0042 -6.70216 10.7718 -6.716 10.7351C-6.73508 10.6845 -6.73353 10.686 -6.6942 10.799C-6.63654 10.9647 -6.62874 10.9895 -6.53306 11.266C-6.40015 11.6501 -6.16558 12.3227 -5.86822 13.0592C-5.57997 13.773 -5.11378 14.8488 -4.43626 16.0197L22.5959 0.37733C22.9296 0.954076 23.0862 1.3519 23.0917 1.36554C23.1063 1.40175 23.085 1.35194 22.9815 1.0529C22.9331 0.912952 22.7091 0.251108 22.5065 -0.285962C22.3903 -0.594074 22.2036 -1.07265 21.955 -1.61793C21.7358 -2.09883 21.2826 -3.04819 20.5627 -4.1192L-5.35717 13.3044ZM11.1962 -7.27327C10.3556 -7.38826 9.46875 -7.45425 8.542 -7.45425V23.7775C7.98471 23.7775 7.45636 23.7377 6.96339 23.6703L11.1962 -7.27327ZM8.542 -7.45425C4.86265 -7.45425 0.785552 -6.40493 -2.74947 -3.79251L15.8125 21.3247C13.2847 23.1927 10.6341 23.7775 8.542 23.7775V-7.45425ZM19.6787 0.339525C16.5125 -4.60028 10.9167 -7.96965 4.48902 -7.96965V23.2621C-0.221338 23.2621 -4.31199 20.7868 -6.61566 17.1927L19.6787 0.339525ZM4.48902 -7.96965C-4.02414 -7.96965 -11.0677 -2.10215 -13.0143 5.70876L17.2904 13.2614C15.87 18.9604 10.728 23.2621 4.48902 23.2621V-7.96965ZM2.01545 -6.13028L1.91106 -6.12946L2.15619 25.1013L2.26058 25.1005L2.01545 -6.13028ZM-13.5811 9.67313L-13.521 14.6872L17.7085 14.3128L17.6484 9.29868L-13.5811 9.67313ZM2.36217 30.1135L3.60203 30.0922L3.06518 -1.13486L1.82532 -1.11354L2.36217 30.1135ZM16.9325 22.1549L17.3823 21.358L-9.8155 6.0056L-10.2653 6.80248L16.9325 22.1549ZM9.3803 28.2602C13.6856 26.6073 16.743 23.5717 18.4512 21.3785L-6.18888 2.18767C-5.77943 1.66195 -5.34898 1.22705 -4.87037 0.836023C-4.61569 0.627945 -4.26875 0.368145 -3.82021 0.0909222C-3.38917 -0.175481 -2.71568 -0.550217 -1.81346 -0.896591L9.3803 28.2602ZM3.865 27.2336C5.38265 27.4562 7.24415 27.5992 8.542 27.5992V-3.63246C8.61898 -3.63246 8.68017 -3.63169 8.72197 -3.63097C8.76473 -3.63023 8.79742 -3.62936 8.81863 -3.62872C8.85937 -3.62748 8.87716 -3.62652 8.86969 -3.62689C8.86386 -3.62718 8.84534 -3.62815 8.8151 -3.63009C8.78533 -3.632 8.74913 -3.63454 8.70818 -3.63772C8.62318 -3.64434 8.53925 -3.65206 8.46818 -3.65964C8.43398 -3.66329 8.40907 -3.66623 8.3939 -3.66812C8.37815 -3.67007 8.37964 -3.67006 8.39729 -3.66747L3.865 27.2336ZM8.542 27.5992C9.91087 27.5992 11.3872 27.4136 11.9822 27.3347C12.1782 27.3087 14.5554 27.0404 16.7311 26.2416L5.96713 -3.07661C6.38373 -3.22956 6.72333 -3.33246 6.93565 -3.39331C7.15933 -3.45741 7.34039 -3.50289 7.46186 -3.53199C7.69661 -3.58822 7.85644 -3.61844 7.90489 -3.62745C8.0012 -3.64536 7.99417 -3.64153 7.88003 -3.6264C7.77925 -3.61305 7.69517 -3.60421 7.66739 -3.60163C7.65378 -3.60037 7.69635 -3.60459 7.7858 -3.61029C7.82606 -3.61286 8.12084 -3.63246 8.542 -3.63246V27.5992ZM16.7052 26.2511C19.9161 25.0786 23.1414 22.9066 25.4889 19.5808C27.7938 16.3153 30.0606 10.486 27.6366 3.88816L-1.67928 14.6584C-3.79664 8.89514 -1.74182 4.00032 -0.0268805 1.5707C1.73056 -0.919143 3.98776 -2.35389 5.99301 -3.08608L16.7052 26.2511ZM4.01324 -11.1572C12.1489 -11.1572 18.7319 -4.56204 18.7319 3.56125H-12.4998C-12.4998 12.6744 -5.11225 20.0745 4.01324 20.0745V-11.1572ZM18.7319 3.56125C18.7319 11.7003 12.1334 18.2805 4.01324 18.2805V-12.9512C-5.09676 -12.9512 -12.4998 -5.56707 -12.4998 3.56125H18.7319ZM4.01324 18.2805C-4.11342 18.2805 -10.7057 11.6944 -10.7057 3.56125H20.526C20.526 -5.5606 13.1292 -12.9512 4.01324 -12.9512V18.2805ZM-10.7057 3.56125C-10.7057 -4.56487 -4.11989 -11.1572 4.01324 -11.1572V20.0745C13.1351 20.0745 20.526 12.6777 20.526 3.56125H-10.7057Z" mask="url(#path-1-inside-1_422_1889)"/>
</svg>
