<svg width="10" height="5" viewBox="0 0 10 5" fill="none" xmlns="http://www.w3.org/2000/svg">
<path fill-rule="evenodd" clip-rule="evenodd" d="M1.15901 1.15901C1.58097 0.737053 2.15326 0.5 2.75 0.5H7.25C7.84674 0.5 8.41903 0.737053 8.84099 1.15901C9.26295 1.58097 9.5 2.15326 9.5 2.75V4.25C9.5 4.66421 9.16421 5 8.75 5C8.33579 5 8 4.66421 8 4.25V2.75C8 2.55109 7.92098 2.36032 7.78033 2.21967C7.63968 2.07902 7.44891 2 7.25 2H2.75C2.55109 2 2.36032 2.07902 2.21967 2.21967C2.07902 2.36032 2 2.55109 2 2.75V4.25C2 4.66421 1.66421 5 1.25 5C0.835786 5 0.5 4.66421 0.5 4.25V2.75C0.5 2.15326 0.737053 1.58097 1.15901 1.15901Z" fill="#7E7E82"/>
</svg>
