<svg width="80" height="80" viewBox="0 0 80 80" fill="none" xmlns="http://www.w3.org/2000/svg">
<g clip-path="url(#clip0_276_2090)">
<path fill-rule="evenodd" clip-rule="evenodd" d="M21.618 61.428C35.308 59.428 44.734 59.6 58.442 61.498C59.4347 61.6419 60.3419 62.1402 60.9958 62.9008C61.6498 63.6614 62.0065 64.6329 62 65.636C62 66.596 61.67 67.528 61.074 68.256C60.0352 69.5253 58.971 70.7735 57.882 72H63.164C63.496 71.604 63.83 71.2 64.168 70.79C65.3543 69.3352 66.0015 67.5152 66 65.638C66 61.588 63.044 58.098 58.99 57.538C44.958 55.596 35.15 55.41 21.04 57.472C16.944 58.07 14 61.614 14 65.692C14 67.502 14.59 69.292 15.708 70.742C16.038 71.17 16.364 71.59 16.688 72.002H21.842C20.8288 70.789 19.8406 69.5554 18.878 68.302C18.3059 67.5517 17.9973 66.6336 18 65.69C18 63.536 19.548 61.73 21.618 61.428ZM40 42C41.5759 42 43.1363 41.6896 44.5922 41.0866C46.0481 40.4835 47.371 39.5996 48.4853 38.4853C49.5996 37.371 50.4835 36.0481 51.0866 34.5922C51.6896 33.1363 52 31.5759 52 30C52 28.4241 51.6896 26.8637 51.0866 25.4078C50.4835 23.9519 49.5996 22.629 48.4853 21.5147C47.371 20.4004 46.0481 19.5165 44.5922 18.9134C43.1363 18.3104 41.5759 18 40 18C36.8174 18 33.7652 19.2643 31.5147 21.5147C29.2643 23.7652 28 26.8174 28 30C28 33.1826 29.2643 36.2348 31.5147 38.4853C33.7652 40.7357 36.8174 42 40 42ZM40 46C44.2435 46 48.3131 44.3143 51.3137 41.3137C54.3143 38.3131 56 34.2435 56 30C56 25.7565 54.3143 21.6869 51.3137 18.6863C48.3131 15.6857 44.2435 14 40 14C35.7565 14 31.6869 15.6857 28.6863 18.6863C25.6857 21.6869 24 25.7565 24 30C24 34.2435 25.6857 38.3131 28.6863 41.3137C31.6869 44.3143 35.7565 46 40 46Z" fill="white"/>
<path fill-rule="evenodd" clip-rule="evenodd" d="M40 76C59.882 76 76 59.882 76 40C76 20.118 59.882 4 40 4C20.118 4 4 20.118 4 40C4 59.882 20.118 76 40 76ZM40 80C62.092 80 80 62.092 80 40C80 17.908 62.092 0 40 0C17.908 0 0 17.908 0 40C0 62.092 17.908 80 40 80Z" fill="white"/>
</g>
<defs>
<clipPath id="clip0_276_2090">
<rect width="80" height="80" fill="white"/>
</clipPath>
</defs>
</svg>
