<svg width="14" height="14" viewBox="0 0 14 14" fill="none" xmlns="http://www.w3.org/2000/svg">
<path d="M6.999 0C6.34964 0 5.82324 0.526394 5.82324 1.17575C5.82321 1.5698 6.01725 1.91833 6.3148 2.13166H7.68319C7.98072 1.9183 8.17475 1.5698 8.17475 1.17575C8.17475 0.526394 7.64836 0 6.999 0Z" />
<path d="M12.2929 2.59539H11.9924C11.9924 2.03339 11.9924 2.15483 11.9924 1.58928C11.9924 1.48523 11.9081 1.40091 11.804 1.40091H11.2894C11.1854 1.40091 11.101 1.48526 11.101 1.58928C11.101 2.15483 11.101 2.03331 11.101 2.59539H10.4432C10.4706 2.30724 10.2584 2.05494 9.97729 2.02519C9.69064 1.99509 9.43194 2.20358 9.40156 2.4908L9.39052 2.59542H4.61209L4.60104 2.4908C4.57074 2.20416 4.31221 1.99473 4.02532 2.02519C3.74466 2.05486 3.53195 2.3068 3.55941 2.59536H2.89993C2.89993 2.03337 2.89993 2.1548 2.89993 1.58925C2.89993 1.48521 2.81557 1.40088 2.71156 1.40088H2.19689C2.09285 1.40088 2.00852 1.48523 2.00852 1.58925C2.00852 2.1548 2.00852 2.03329 2.00852 2.59536H1.7081C1.51117 2.59536 1.35156 2.755 1.35156 2.9519C1.35156 3.14883 1.5112 3.30843 1.7081 3.30843H2.00852C2.00852 3.87043 2.00852 3.749 2.00852 4.31455C2.00852 4.41859 2.09288 4.50292 2.19689 4.50292H2.71153C2.81557 4.50292 2.8999 4.41856 2.8999 4.31455C2.8999 3.749 2.8999 3.87051 2.8999 3.30843H3.63452C3.65708 3.5218 3.81663 5.03035 3.84023 5.25348C3.8866 5.6924 4.43629 5.89004 4.74623 5.55207C4.74911 5.54893 4.75233 5.54616 4.75515 5.54291L5.49097 4.70083L5.49124 13.3193C5.49124 13.6953 5.79604 14.0001 6.17199 14.0001C6.54794 14.0001 6.85274 13.6953 6.85274 13.3193V7.87793H7.14669V13.3194C7.14669 13.6954 7.45146 14.0002 7.82744 14.0002C8.20341 14.0002 8.50819 13.6954 8.50819 13.3194C8.50819 13.231 8.49586 4.68298 8.49586 4.68298L9.24737 5.54302C9.25019 5.54625 9.25333 5.54898 9.25623 5.55213C9.55783 5.88104 10.1144 5.70536 10.1623 5.25359C10.1858 5.03052 10.3454 3.52188 10.368 3.30854H11.101C11.101 3.87054 11.101 3.74911 11.101 4.31466C11.101 4.4187 11.1853 4.50303 11.2893 4.50303H11.804C11.908 4.50303 11.9924 4.41867 11.9924 4.31466C11.9924 3.74911 11.9924 3.87062 11.9924 3.30854H12.2928C12.4898 3.30854 12.6493 3.14891 12.6493 2.95201C12.6494 2.75508 12.4898 2.59539 12.2929 2.59539ZM9.26605 3.77205C9.13739 3.77205 5.07348 3.77205 4.73653 3.77205L4.6875 3.30849H9.31505L9.26605 3.77205Z" />
</svg>
